<svg xmlns="http://www.w3.org/2000/svg" width="2500" height="2500" viewBox="8.83 9.007 161.986 161.986"><path fill="#6158AC" d="M89.823 9.007c44.61 0 80.993 36.383 80.993 80.993 0 44.609-36.383 80.993-80.993 80.993S8.83 134.609 8.83 90c0-44.61 36.383-80.993 80.993-80.993z"/><path fill="#2D254F" d="M89.823 14.624c41.516 0 75.376 33.859 75.376 75.376 0 41.516-33.86 75.376-75.376 75.376-41.517 0-75.376-33.86-75.376-75.376 0-41.517 33.86-75.376 75.376-75.376z"/><path fill="#2D254F" d="M89.823 14.971c41.325 0 75.028 33.704 75.028 75.029 0 41.324-33.703 75.029-75.028 75.029S14.794 131.324 14.794 90c0-41.325 33.705-75.029 75.029-75.029z"/><path fill="#6661A8" d="M89.823 36.966c29.21 0 53.034 23.823 53.034 53.034s-23.824 53.034-53.034 53.034c-29.21 0-53.034-23.823-53.034-53.034s23.824-53.034 53.034-53.034zm0-4.216c31.532 0 57.25 25.718 57.25 57.25 0 31.533-25.718 57.25-57.25 57.25-31.533 0-57.25-25.717-57.25-57.25 0-31.532 25.718-57.25 57.25-57.25z"/><radialGradient id="a" cx="-1358.907" cy="554.36" r="11.37" gradientTransform="translate(6428.444 -2495.814) scale(4.6645)" gradientUnits="userSpaceOnUse"><stop offset="0" stop-color="#938eae"/><stop offset=".23" stop-color="#908bac"/><stop offset=".62" stop-color="#645e89"/><stop offset="1" stop-color="#47416a"/></radialGradient><circle fill="url(#a)" cx="89.823" cy="90" r="53.034"/><path fill="#A49BC6" d="M89.823 14.562c20.776 0 39.636 8.473 53.301 22.138 13.664 13.665 22.137 32.521 22.137 53.298v.004c0 20.773-8.473 39.635-22.139 53.3-13.664 13.665-32.522 22.138-53.296 22.138h-.004c-20.775 0-39.635-8.474-53.3-22.139s-22.137-32.522-22.138-53.298v-.005c0-20.774 8.473-39.634 22.138-53.3C50.188 23.033 69.046 14.562 89.82 14.562h.003zm.002.819h-.005c-20.547.001-39.201 8.38-52.718 21.897-13.517 13.517-21.897 32.172-21.898 52.72v.005c.001 20.548 8.381 39.201 21.897 52.718 13.517 13.52 32.172 21.898 52.721 21.898h.004c20.546-.001 39.201-8.38 52.718-21.897 13.517-13.517 21.896-32.172 21.897-52.72v-.005c-.002-20.548-8.381-39.201-21.897-52.718-13.517-13.518-32.171-21.898-52.719-21.898z"/><path fill="#849899" d="M63.861 33.539l.003-.002.001-.002 1.795-.816 4.53 5.753 5.86 9.939 5.751 9.755 7.15 13.82 7.17 15.546.003.007.006.014.003.005.003.005.005.011.006.012.002.008h.002v.004l.002.002a598.03 598.03 0 0 1 5.697 12.736l1.775 4.104 1.663 3.977 1.528 3.789 7.903 19.592 4.027 14.247-2.481 1.146-.002.002-.005.002-1.795.814-4.528-5.753-5.858-9.938-5.752-9.756-7.149-13.817-7.17-15.548-.002-.008-.007-.015-.002-.005-.002-.004-.005-.014-.006-.014-.004-.007v-.002-.002C76.807 77.577 70.94 63.17 67.257 52.466l-3.754-10.908-1.434-7.181 1.787-.835.002-.002.003-.001zm.344.742l-.004.002v-.001c-1.339.633.226 7.442 3.831 17.918l3.678 10.688 5.857 14.383 7.155 15.52.003.006.007.014.002.006.002.006.005.012.005.011.003.009v.002l.001.002v.002h.001c7.156 15.521 14.292 29.311 20.028 39.043l5.631 9.548 4.164 5.61 1.35-.613 2.035-.938-4.168-13.832-7.734-19.166-1.512-3.749-1.662-3.969-1.788-4.13-1.786-4.123-1.901-4.261-2.003-4.34-.002-.006-.006-.015-.004-.005-.002-.004-.006-.015-.008-.017-.002-.006c-7.158-15.518-14.292-29.31-20.03-39.041l-5.629-9.548-4.164-5.611-1.347.608zM84.75 92.852l.001.002v.002h.001m-.002-.006c0 .002 0 .002 0 0m-.773.278v-.002"/><path fill="#849899" d="M84.89 28zm0 0l.028-.001.002-.001.002.001h.002c.231-.012.462.053.69.192l.195.12.194.178.192.23.869 1.055.923 2.357.931 3.417v.005l.002.003.396 1.453.401 1.654.401 1.833.396 1.81.401 2.005.401 2.182 2.047 11.129 1.965 15.304 1.4 16.882.002.04.004.037.007.09h.001l1.404 17 .578 15.498-.201 11.301-.205 11.487-1.104 7.228-1.945.229v.002l-.053.006.027-.002-.012.002h-.001l.01-.002-.033.002H95.2c-1.956.098-4.233-6.851-6.33-18.149l-2.062-11.12-1.985-15.381-1.415-16.992v-.002l-.001-.02-.007-.075-.005-.069-.003-.038-.002-.04-.007-.089v-.002.002m1.574-61.933l-.02.001h.014l.006-.001c.003.001.005.001 0 0l-.005.002h.001l.004-.002a.01.01 0 0 0 .005.001l-.005-.001zm.006.001h-.002.002l-.006-.001v.001h-.001v-.001h-.006l-1.472.16-.858 6.928-.197 11.058-.201 11.26.578 15.466 1.405 16.99v.002l.001.021.006.072.006.07.003.041.003.036.007.09 1.415 16.997 1.979 15.354 2.052 11.062 2.017 10.872 1.99 6.69 1.48-.084v.001h.006v-.001l.021-.001h-.021l.006-.001h-.003l-.004.001h.001-.001l-.005.001h.006v.001-.001.001h.007l1.472-.161.859-6.928.197-11.059.2-11.26-.578-15.467-1.405-16.989-.002-.021-.006-.074-.006-.07-1.401-16.889-1.958-15.272-2.037-11.073-.393-2.137-.4-1.997-.403-1.837-.397-1.813-.397-1.64-.394-1.445h.001l-.001-.005-.001-.002-.903-3.312-.868-2.253-.791-.96-.132-.16-.126-.118-.118-.072-.083-.051-.076-.024-.067.004zm0-.001c.014-.002.007-.002 0 0zm10.203 123.088c-.008.001-.016.001 0 0zM83.385 90.747c-1.406-17-1.984-32.497-1.782-43.796l.205-11.49 1.101-7.227 1.949-.228v-.002l.051-.007-.028.003h.009"/><path fill="#849899" d="M106.544 29.996l.005.001.003.002 1.897.535-.231 7.316-1.903 11.375-1.871 11.169-3.408 15.174-4.506 16.503h-.003l-.014.051a.738.738 0 0 0-.012.046v.005l-4.508 16.507-4.772 14.803-4.063 10.565-4.14 10.765-3.519 6.42-1.905-.502h-.003l-.005-.002-.005-.002-.003-.002-1.897-.533.231-7.316 1.904-11.374 1.87-11.17 3.411-15.175L83.6 88.652h.001l.012-.051V88.6c-.001.005-.002.007 0 .001m22.721-57.814h-.005l-.005-.002c-1.434-.369-4.613 5.849-8.588 16.183l-4.055 10.541-4.761 14.773-4.502 16.481h-.001l-.013.05c.001-.003.001-.004.001.001v-.001l-.003.013.002-.013c-.002.007-.004.02-.012.047v.005l-4.5 16.485-3.405 15.146-1.864 11.134-1.828 10.921-.421 6.973 1.422.412v-.002l.005.002h.004v.002c1.434.369 4.614-5.851 8.588-16.185l4.054-10.541 4.762-14.772 4.502-16.481h.001c.006-.024.011-.041.013-.054 0 .005-.002.009 0 .002v-.002l.002-.002-.002.005h.002c0-.007.006-.021.014-.047v-.005l4.5-16.488 3.402-15.144 1.865-11.134 1.827-10.92.421-6.972-1.422-.411zm-9.82 61.335c.002-.004.004-.005.002.001l-.002-.001.002.002-.002-.002m0 0c0 .001.002.001 0 0 0 .001 0 .001 0 0zm0 .001l-.002.01.002-.01zm-.002.01v0zm0 .002l-.001.002.001-.002-.001.002c-.003.014-.002.008-.001 0h.001-.001m.002-.001v-.002.002zm0-.002zm0 0c.002-.001 0-.001 0-.002v.002zm0-.002zm.002 0v-.003.003zm0-.003zm0-.001l.002-.004-.002.004zm-.789-.223zm0-.001c0-.001 0-.001 0 0v-.002c0-.002.002-.002.002-.002v-.004.004l-.002.002m.002-.006zm0 0l.002-.007-.002.007s.002 0 0 0l.002-.004s0 .003-.002.004zm.002-.003zm-.002.003v.002-.002zm0 .002zm0 0c0 .002 0 .002 0 0 0 .002 0 .002 0 0zm0 .002v.003m-.002.005c0 .005 0 .007 0 0zm.786.229l.001-.002m.002-.013c.002-.006.002-.01 0 0m-12.9-3.52l.002-.006v.007l.013-.047v-.005l4.507-16.506 4.773-14.802 4.062-10.566 4.141-10.766 3.521-6.42 1.905.503h.004l.005.002m-22.931 58.6zm0-.001zm0-.001v-.002.002zm.001-.002v-.002.002zm0-.002c.001-.001 0-.001 0 0 .001-.001.001-.001 0 0v-.002-.001.003m.001-.003c.003-.013.002-.007 0 .002v-.002zm-.001.002zm0 0v0zm0 .002s-.001 0 0 0c-.001 0 0 0 0 0zm-.001.001zm0 0v0zm0 .002l-.001.004.001-.004zm-.001.004v0zm.789.221v.002-.002zm-.001.002v0zm0 .003l-.001.002.001-.002zm-.001.002zm0 0zm-.001.001zm0 .001zm0 .001s0 .001 0 0c0 .001 0 0 0 0zm0 .001v0zm-.001.002s0 .001 0 0zm0 .001c-.003.011-.002.007 0 0zm0-.001zm0 0c0-.001 0-.001 0 0 0-.001 0-.001 0 0zm0-.001v-.002.002zm.001-.002zm.002-.014c.002-.004.002-.006 0 0zm-.788-.212c-.001.004-.002.008 0 0z"/><path fill="#849899" d="M126.199 39.274l.002.001a.022.022 0 0 0 .008.005l-.001.001c.013.009.026.02.046.037 1.512 1.237-1.211 8.004-6.844 17.952-5.582 9.86-13.985 22.958-23.869 36.928h.001l-.004.005-.001.002c-.02.027.001-.004-.01.01.005-.005.004-.003-.014.022l-.006.007a589.23 589.23 0 0 1-8.193 11.299 507.69 507.69 0 0 1-7.8 10.232c-13.01 16.613-23.333 27.216-25.584 25.674l-.004-.002-.002-.002-.001-.001-.002-.001.002.001.001.001-.026-.021c-1.53-1.271 1.193-8.031 6.82-17.972 5.583-9.86 13.985-22.958 23.869-36.928.026-.038.003-.005.012-.016l.016-.021.005-.007a615.152 615.152 0 0 1 8.191-11.299 520.06 520.06 0 0 1 7.802-10.232c13.01-16.617 23.334-27.216 25.586-25.675m-.454.683c.001.001.001.001 0 0l-.011-.007c-1.832-1.296-11.733 9.226-24.479 25.5a515.791 515.791 0 0 0-7.787 10.217 610.511 610.511 0 0 0-8.177 11.28c-.029.042.001-.002-.017.021.005-.008.01-.013-.011.021l-.005.007c-9.879 13.963-18.268 27.036-23.831 36.862-5.448 9.621-8.229 16.023-7.046 16.91l.01.006c1.831 1.298 11.733-9.226 24.477-25.498 2.5-3.192 5.109-6.613 7.787-10.219 2.65-3.563 5.387-7.34 8.176-11.278.016-.021.016-.021.012-.019l.018-.021.005-.009c9.879-13.961 18.268-27.034 23.831-36.861 5.449-9.625 8.233-16.027 7.048-16.912zM95.538 94.203l-.001.002m-.01.01l-.002.003.002-.003zm-.672-.464l-.004.006a.031.031 0 0 0 .004-.006zm-.005.006l-.002.004.002-.004zm-.002.004c0 .001 0 0 0 0 0 .001-.004.004 0 0zm-40.95 47.663l.023.021a.538.538 0 0 1-.049-.042l.026.021zM84.601 86.51l.003-.005.001-.001.003-.004c.003-.005.006-.008 0-.001v.001m.667.472s-.001 0 0 0"/><path fill="#849899" d="M141.512 54.74l.002.003h-.002c.371.547.188 1.395-.496 2.503l-.608.988-1.024 1.248-1.39 1.469-7.071 7.468-16.767 13.391-20.281 14.045-.032.021-.001-.001a611.176 611.176 0 0 1-11.554 7.812l-3.721 2.448-3.629 2.325-3.483 2.17-17.934 11.175-13.34 6.431-1.557-2.248-.005-.006-.001-.002c-.371-.547-.188-1.396.497-2.504l.61-.987 1.024-1.248 1.39-1.468 7.072-7.471L65.976 98.91l20.283-14.048.021-.016-.085.056.091-.062.001.001a600.091 600.091 0 0 1 11.554-7.811l3.722-2.45 3.629-2.326 3.482-2.169 17.936-11.174 13.341-6.43 1.558 2.249.003.01zm-.682.457v-.003c-1.299-1.824-14.195 4.671-31.723 15.592l-3.418 2.128-3.621 2.321-3.773 2.483-3.789 2.496-3.87 2.611-3.893 2.696-.008.006-.01.007-.008.006-.006.005-.006.003-.005.004-.003.002c-20.225 14.01-36.928 27.352-43.965 34.78l-1.354 1.43-.99 1.203-.578.938-.503.812-.183.554.172.252.003.002.001.003c1.299 1.823 14.196-4.671 31.723-15.591l3.417-2.129 3.621-2.321 3.774-2.485 3.789-2.495 3.869-2.612 3.893-2.692.009-.007.023-.018.014-.01.006-.004.002-.001.002-.001c20.222-14.007 36.923-27.346 43.957-34.774l1.354-1.431.989-1.203.576-.937.506-.814.182-.551-.172-.252-.004-.003zM93.873 95.855c0 .002 0 .002 0 0l-.006.005-.003.002.007-.005m-.465-.669l.007-.006.007-.005.007-.004a.098.098 0 0 0-.021.015zm-6.701-9.637l-.006.004-.003.002"/><path fill="#849899" d="M150.593 74.492l.001.006.002.003.482 1.909-6.454 3.453-10.806 4.031-10.605 3.956-14.85 4.624-16.551 4.341-.004.002-.055.015.01-.002h-.003l-.029.008-.01.004-.02.004v-.001a601.26 601.26 0 0 1-13.534 3.386l-4.345 1.028-4.205.943-4.002.844-20.663 4.357-14.724 1.474-.693-2.646-.002-.004-.001-.005-.483-1.909 6.455-3.451 10.806-4.03 10.606-3.957 14.849-4.623 16.551-4.342.003-.001.053-.013-.008.001.004-.001.031-.008.009-.003.018-.004v.001a591.618 591.618 0 0 1 13.534-3.384l4.345-1.031 4.204-.943 4.005-.844 20.661-4.355 14.726-1.474.692 2.641zm-.79.207v-.002l-.568-2.168-14.34 1.687-20.215 4.264-3.949.833-4.195.941-4.385 1.04-4.396 1.043-4.526 1.131-4.599 1.204-.003.002-.053.013.008-.002-.003.001-.031.008-.009.004-.018.004V84.7c-16.524 4.335-31.343 8.948-41.923 12.896l-10.381 3.871-6.251 3.12.364 1.438v.002l.568 2.168 14.34-1.688 20.214-4.264 3.949-.832 4.196-.941 4.384-1.041 4.396-1.043 4.528-1.13 4.598-1.205.003-.002.053-.013-.009.002.005-.001.03-.008.009-.004.018-.004h.003c16.521-4.334 31.342-8.946 41.922-12.896l10.381-3.872 6.252-3.119-.367-1.435z"/><path fill="#849899" d="M152.369 96.164a.631.631 0 0 1-.004.035l-.084.652-.699.527-1.247.405-1.112.36-1.598.295-2.02.229-10.23 1.157-21.355-.527-24.46-2.271c.101.009.144.014-.258-.021l-.002-.001-17.01-1.587-15.367-2.139-11.08-2.171-11.28-2.21-6.923-2.347.118-1.957v-.004-.003.007m123.799 11.504v-.005h-.002c0 .01-.002.02 0 0v-.008l.104-1.479-6.672-2.059-10.854-2.127-11.068-2.169-15.338-2.136-16.967-1.582v.004l-.684-.062.902.079-.369-.035-24.449-2.276-21.342-.53-10.204 1.154-1.965.222-1.542.284-1.059.344-.921.3-.508.304-.043.304V84.642l-.103 1.479 6.671 2.057L46 90.304l11.07 2.169 15.338 2.135 16.963 1.584v-.002l.685.062-.903-.078.368.034 24.452 2.275 21.342.53 10.203-1.152 1.965-.224 1.543-.283 1.06-.346.926-.3.509-.306.036-.305zm0-.005v-.008m-123.8-11.497c0-.011.002-.002.004-.027 0-.011.002-.021.004-.034l.083-.654.7-.528 1.247-.405 1.113-.361 1.597-.296 2.02-.229 10.227-1.156 21.341.525 24.446 2.271c-.072-.008-.063-.008.292.021l.001.003 17.01 1.589 15.367 2.139 11.079 2.171 11.295 2.213 6.927 2.35-.137 1.958c-.001.011-.002.003-.004.025v.001M28.574 84.64v-.003m0 .003c0 .002 0 .002 0 0m.001-.007v-.005.005zm0-.005v-.003.003zm61.972-.936l.023.003-.023-.003zm61.01 12.392l-.002.008h.002"/><path fill="#849899" d="M146.627 117.123l.002-.005-.002.005zm.002-.005l.001-.002-.001.002zm.001-.002c.001 0 .001-.001 0 0 .001-.001 0-.001 0 0zm.001-.004c.002-.005.003-.003 0 .005l-.01.021-.287.602-.828.267-1.305-.039-1.16-.035-1.593-.264-1.968-.472-10.004-2.399-19.975-7.835-22.296-10.558h-.001l-.017-.009.007.004-.012-.006-.006-.002-4.351-2.062-4.198-2.049-3.996-2.007-3.979-1.999-3.827-1.983-3.621-1.934-18.587-9.932L32.403 66.1l1.098-2.493c-.002.007-.004.01 0 0l.01-.024v-.003c.289-.598 1.117-.862 2.418-.823l1.16.035 1.593.265 1.968.474 10.003 2.396 19.974 7.836L92.925 84.32h.002l.017.008-.006-.002.013.004.006.004 4.353 2.06 4.196 2.049 3.996 2.007 3.979 1.999 3.828 1.981 3.619 1.937 18.577 9.925 12.211 8.323-1.085 2.497zm-.753-.318c0-.001.001-.001 0 0l.002-.003.006-.012c.929-2.039-11.136-9.967-29.344-19.694l-3.55-1.896-3.818-1.979-4.039-2.029-4.021-2.02-4.191-2.046-4.31-2.041-.031-.014-.003-.001-.003-.002v-.001C70.33 74.527 50.418 66.714 40.461 64.326l-1.914-.459-1.537-.256-1.103-.033-.958-.029-.57.115-.131.272-.003.005v.002c-.938 2.035 11.128 9.966 29.342 19.694l3.55 1.896 3.819 1.978 4.039 2.029 4.021 2.021 4.192 2.045 4.31 2.041.031.015.003.001.003.002v.001c22.246 10.53 42.158 18.344 52.115 20.729l1.914.461 1.537.256 1.104.033.949.027.568-.111.136-.267zm.001-.001l.001-.002m-.002.003c.001-.001 0-.001 0 0M33.5 63.608l.005-.013a.05.05 0 0 1-.005.013zM33.51 63.585zm0 0v-.003.003zm.001-.004c0 .001 0 .001 0 0zm.735.36"/><path fill="#849899" d="M134.047 134.874l-.002.002-.003.001c-.474.465-1.343.434-2.554-.05-1.076-.429-2.482-1.222-4.172-2.339-8.576-5.676-24.664-19.874-42.005-37.426l-.001.002c-.005-.006.011.01-.021-.022C73.256 82.86 62.832 71.306 55.722 62.491c-7.244-8.981-11.036-15.245-9.638-16.638l-.001-.001.002-.002.001-.001.003-.001c.474-.466 1.343-.434 2.554.049 1.076.429 2.482 1.222 4.171 2.34 8.577 5.675 24.665 19.873 42.006 37.424l.008.008.002.004a609.486 609.486 0 0 1 8.025 8.277 534.802 534.802 0 0 1 7.393 7.927c12.068 13.211 20.792 24.195 23.346 29.455h.001l.005.01v.002c.105.219.205.438.297.651.096.222.172.42.23.595.372 1.072.357 1.848-.08 2.284zm-.58-.577v-.002l.004-.002c.191-.188.146-.679-.119-1.438a7.082 7.082 0 0 0-.209-.543c-.076-.187-.17-.391-.277-.611l-.008-.012v-.002c-2.52-5.188-11.191-16.104-23.215-29.262a553.772 553.772 0 0 0-7.379-7.914 601.038 601.038 0 0 0-8.014-8.266h-.002l-.008-.005-.001-.004C76.938 68.726 60.9 54.568 52.363 48.919c-1.64-1.085-2.996-1.851-4.021-2.26-.886-.354-1.46-.439-1.678-.23l.001.001-.001.001-.002.001h-.001c-1.051 1.045 2.738 6.917 9.699 15.548 7.096 8.797 17.503 20.332 29.519 32.495l.004.004c.004.007.006.007.007.009v-.001c-.002-.004-.008-.01 0 0l.001.003c17.302 17.512 33.339 31.669 41.876 37.317 1.641 1.084 2.996 1.852 4.021 2.26.888.352 1.46.439 1.679.23zM85.89 94.485c.001.001.001.001 0 0z"/><path fill="#A498A4" d="M134.533 46.337l.003.005.167.169.104.219.045.265.035.226-.008.262-.053.294-.24 1.341-1.215 2.229-2.03 2.924-.001.002-.005.007-.854 1.229-1.01 1.369-1.149 1.49-1.151 1.49-1.277 1.597-1.396 1.685-7.201 8.702-10.469 11.336L94.77 95.112h.002l-.004.004h-.002l-2.244 2.222-2.215 2.161-2.174 2.087-2.188 2.102-2.148 2.03-2.094 1.948-10.808 10.059-9.555 8.06-6.517 4.612h-.003l-.007.004-.649.462-.635.436-.618.409-.607.4-.569.361-.529.32-2.895 1.751-1.958.606-.755-.762h-.001l-.001-.001-.002-.003-.186-.188-.108-.25-.033-.308-.028-.259.027-.303.081-.344.376-1.595 1.598-2.711 2.593-3.553.002-.002.913-1.251 1.051-1.375 1.177-1.484 1.183-1.49 1.283-1.566 1.372-1.631 7.132-8.479 9.958-10.723L85.36 85.61l-.001-.001.007-.006h.002l2.724-2.697 2.686-2.608 2.623-2.503 2.633-2.511 2.574-2.41 2.496-2.291 12.857-11.799 10.803-8.675 5.547-2.969.008-.006.014-.006.008-.004.008-.004.004-.001h.002v-.001l.004-.002.004-.001v-.002h.002-.002v.002l-.004.001-.004.002v.001m3.6-.202l-.002-.001v-.002c-.227-.228-.846-.131-1.811.258l-.203.082-.228.101-.248.118-.259.123-.254.129-.248.132-.016.008.113-.055-.119.06-.002-.001c-5.488 2.94-16.223 11.569-29.025 23.318l-2.494 2.291-2.572 2.406-2.627 2.505-2.633 2.515-2.682 2.604-2.704 2.678-.006.007h-.001L74.594 97.42l-9.941 10.707-7.133 8.478-1.401 1.666-1.279 1.562-1.145 1.441-1.149 1.449-1.043 1.365-.926 1.27-.002.003h.001l-2.531 3.47-1.551 2.609-.351 1.48-.06.255-.022.213.018.164.013.116.031.086.051.055.001-.003.001.003v.002c.447.45 2.065-.186 4.607-1.723l.528-.32.56-.354.588-.391.577-.383.628-.432.675-.479h.002l.006-.004v-.003l6.496-4.599 9.525-8.032 10.775-10.026 2.103-1.957 2.145-2.027 2.172-2.086 2.186-2.1 2.213-2.156 2.227-2.203v-.001l.004-.004h.002l12.029-11.91 10.447-11.315 7.191-8.688 1.402-1.697 1.274-1.588 1.13-1.465 1.128-1.46.999-1.355.859-1.235h-.002l.002-.003.006-.006 1.969-2.835 1.171-2.122.218-1.219.037-.202.008-.169-.021-.135-.017-.093-.025-.07-.045-.047zm.576-.58h.002m-4.174.779c.279-.149.533-.277.754-.384l.246-.116.242-.107.234-.096 1.293-.521.917-.043.483.487"/><path fill="#A498A4" d="M146.172 64.558l-.002-.002-.625-1.342-6.812 1.558-10.481 3.597-10.692 3.668-14.393 5.843-15.522 7.139-.005.003-.014.006-.005.003-.004.002-.017.007-.016.007-.005.003v-.001c-15.529 7.139-29.327 14.262-39.065 19.989l-9.553 5.619-5.614 4.157.612 1.353m112.954-51.955l.001.003v.002l1.143 2.483-12.32 8.209-18.742 9.749-3.61 1.878-3.849 1.94-4.033 1.97L101.5 92.4l-4.223 2.003-4.391 2.02-.004.003-.014.008-.006.002-.004.002-.018.008-.016.007-.006.003v-.001c-15.561 7.153-29.973 13.009-40.675 16.68l-10.915 3.744-7.182 1.426-.833-1.788v-.002l-.001-.003-.002-.003-.001-.003-.814-1.795 5.757-4.522 9.946-5.853 9.761-5.741 13.827-7.136 15.554-7.154.004-.004.014-.006.005-.003.004-.001.015-.008.016-.007.005-.002c15.56-7.154 29.974-13.009 40.673-16.68l10.916-3.743 7.184-1.427.833 1.788h.004zM33.959 116.167l.626 1.344 6.812-1.558 10.484-3.598 10.695-3.668 14.39-5.845 15.522-7.138.004-.003.015-.007.005-.002.004-.004.018-.006.016-.009.008-.002v.001a607.16 607.16 0 0 0 12.59-5.968l4.027-1.97 3.844-1.938 3.601-1.873 18.331-9.535 12.158-7.8-.934-2.039"/><path fill="#A498A4" d="M74.137 29.85l.004-.001.001-.002.643-.163.737.464.81 1.024.719.91.824 1.39.907 1.813 4.604 9.201 6.863 20.319 6.278 23.854.007.022.006.021.003.01.001.003v.002a593.29 593.29 0 0 1 3.396 13.53l1.037 4.354.946 4.201.847 3.993 4.379 20.66 1.488 14.722-2.644.697H105.984v.002l-.646.163-.735-.463-.812-1.025-.719-.909-.824-1.391-.906-1.812-4.604-9.199-6.864-20.322-6.279-23.854-.008-.027-.007-.027v-.001c-4.353-16.541-7.626-31.743-9.395-42.928l-1.799-11.382-.167-7.314 1.896-.528.008-.004.014-.003zm.206.79l-.003.002-.001.001-.009.003v-.001c-1.418.423-1.059 7.393.667 18.31l1.763 11.149 3.268 15.174 4.35 16.524.001.006.009.035.001.008.001.006 6.265 23.795 6.84 20.262 4.585 9.16.881 1.759.793 1.342.688.868.596.754.456.362.294-.075v.002l.002-.001v-.001l2.168-.571-1.701-14.337-4.281-20.209-.84-3.958-.943-4.196-1.043-4.373-1.05-4.386-1.135-4.524-1.212-4.606-.001-.005-.01-.037-.002-.005-.002-.006-6.264-23.796-6.841-20.262-4.585-9.16-.879-1.759-.794-1.341-.686-.869-.595-.753-.456-.361-.294.075-.001-.005zm22.201 58.073"/><path fill="#A498A4" d="M95.811 28.052l.021.003h.006l.654.08.527.698.408 1.247.362 1.111.298 1.594.23 2.018 1.168 10.23-.505 21.374-2.251 24.483c.01-.093.016-.138-.02.231l-.003.001-1.571 17.009-2.121 15.369-2.16 11.083-2.202 11.297-2.343 6.931-1.959-.134v-.001c-.016-.002.002-.002-.024-.004h-.007l-.02-.003h-.006l-1.947-.238-1.036-7.236-.101-11.496-.099-11.27.717-15.463 1.558-16.977.022-.24.026-.286-.08.859.063-.722.003-.001 1.571-17.008 2.124-15.368 2.16-11.083 2.203-11.297 2.342-6.93 1.959.134c.016.002-.002.002.024.004l.009.001zm-.081.814h-.002.002zm.918 1.466l-.301-.919-.306-.505-.306-.04h-.016l-1.479-.102-2.051 6.673-2.109 10.856-2.158 11.07-2.12 15.34-1.567 16.967h.003l-.055.621.074-.856-.036.387-.022.239-1.553 16.929-.715 15.436.099 11.264.097 11.048.795 6.933 1.469.188h.015l1.479.103 2.05-6.673 2.116-10.854 2.157-11.071 2.121-15.341 1.565-16.967h-.004l.057-.622-.073.856.035-.386 2.254-24.46.508-21.35-1.166-10.198-.225-1.964-.285-1.542-.347-1.06z"/><path fill="#A498A4" d="M116.789 33.781zm-.35.741l-.002-.001c-.006-.002-.008-.004-.012-.004v-.001h-.001c-1.349-.611-5.56 4.96-11.269 14.445l-5.826 9.682L92.07 72.37l-7.296 15.451-.014.03-.001.004-.001.002-.008.017.002-.007-.005.012-.003.007-7.297 15.456-5.988 14.329-3.774 10.65-3.7 10.44-1.626 6.794 1.333.646v.001a.1.1 0 0 1 .009.004c2.039.929 9.955-11.145 19.666-29.363l1.893-3.551 1.974-3.821 2.025-4.041 2.015-4.021 2.043-4.194 2.035-4.312.016-.031.002-.003.002-.004.008-.017-.002.006.004-.012.004-.007 7.299-15.455 5.985-14.33 3.772-10.649 3.695-10.435 1.627-6.791-1.325-.653zm0 0l-.002-.001m-.011-.005c0-.001 0-.001 0 0zm.351-.741l.002.001.002.001.006.003h.002l.001.001c1.774.857.274 8.022-3.575 18.894l-3.781 10.67-5.996 14.355-7.311 15.48v.002l-.001.002h-.001v0m20.654-59.408l.002.001M96.125 93.188l-.014.03-.008.019.002-.008-.005.01-.002.007-2.057 4.354-2.045 4.199-2.003 3.998-1.994 3.981-1.979 3.829-1.93 3.621-9.912 18.598-8.312 12.222-2.496-1.095c.006.003.008.004 0 .001l-.024-.01-.001-.001v-.002h-.005c-1.774-.858-.275-8.023 3.576-18.894l3.781-10.672 5.998-14.354 7.308-15.479.014-.031.001-.003.001-.003.007-.017-.002.007.005-.012.003-.006 7.312-15.484 7.274-13.755 5.838-9.7 5.95-9.886 4.583-5.711 1.786.833M63.367 146.953l-.01-.004.01.004zM63.694 146.203c0 .001 0 .001 0 0m-.001 0"/><path fill="#A498A4" d="M152.434 85.249v.002c0 .001-.002.003 0 .026l.036.658-.595.642-1.156.617-1.031.55-1.52.569-1.945.576-9.891 2.926-21.184 3.201-24.537 2.014h-.002l-.167.013-4.756.389-4.657.325-4.496.264-4.466.261-4.299.196-4.071.135-21.056.693L27.927 98.2l-.229-2.722v-.004.008l-.001-.031-.036-.657.594-.644 1.157-.616 1.031-.552 1.519-.566 1.945-.576 9.89-2.926 21.184-3.201 24.538-2.012h.001-.001m62.094 1.615zm0-.001c0-.014 0-.005 0 0zm0 .001c0 .004 0 .006 0 0l-.184-2.229-14.371-.831-20.602.68-4.041.134-4.293.196-4.48.261-4.451.26-4.65.325-4.789.392-.017.001-.078.007-.072.006h-.001l-24.498 2.007-21.119 3.188-9.831 2.908-1.896.562-1.467.547-.979.521-.854.455-.44.387.017.311v.005c0-.004 0-.005.001 0v.002l.183 2.229 14.373.831 20.598-.68 4.042-.134 4.292-.196 4.482-.262 4.452-.259 4.649-.325 4.789-.394.017-.001.078-.007.072-.006h.001l24.497-2.008 21.119-3.188 9.83-2.908 1.896-.561 1.467-.547.979-.522.854-.456.443-.388-.018-.309v-.004zM90.611 97.028h-.002m-62.092-1.619v-.002.002zm0 0c0 .014 0 .007 0 0zM89.52 83.696a4.61 4.61 0 0 0 .168-.016l4.755-.389 4.658-.325 4.496-.262 4.467-.26 4.299-.197 4.07-.135 21.056-.694 14.714 1.107.229 2.721"/><path fill="#A498A4" d="M150.415 106.9l-.001.005-.002.004-.182.639-.771.405-1.294.188-1.151.168-1.615.018-2.017-.122-10.271-.626-21.026-4.245-23.787-6.521-.001-.002h-.002l-.011-.005-.032-.008h-.003l-16.496-4.522-14.799-4.786-10.568-4.076-10.761-4.15-6.416-3.522.505-1.904v-.003l.001-.005.001-.006.001-.003.181-.64.771-.405 1.293-.188 1.154-.167 1.614-.017 2.016.123 10.271.625 21.026 4.246 23.788 6.519.002.002.002.001.013.003.03.008h.004l16.496 4.522 14.798 4.788 10.569 4.076 10.76 4.148 6.416 3.524-.506 1.903v.008zm-.792-.209l.002-.006v-.007l.002.001c.37-1.435-5.846-4.619-16.176-8.604l-10.531-4.062-14.768-4.774-16.484-4.521-.051-.015v.001L67.885 78.2l-20.961-4.235-10.224-.622-1.971-.12-1.56.016-1.089.157-.945.138-.541.211-.086.291-.001.005-.001.005c-.371 1.435 5.844 4.621 16.175 8.606l10.53 4.061L71.98 91.49l16.484 4.52.05.017v-.002l23.732 6.504 20.961 4.233 10.225.623 1.971.12 1.562-.015 1.09-.156.943-.137.542-.214.083-.292z"/><path fill="#A498A4" d="M141.117 126.547l-.002.002-.001.001-.001.003-.027.035-.002.001-.002.003c-.396.512-1.248.62-2.5.361l-1.135-.236-1.521-.536-1.857-.808-9.435-4.1-18.308-11.188-20.125-14.271H86.2v-.002.002-.002h-.001.001v0h-.001m54.239 30.278c-.004.004-.004.006-.002.002v.001l.002-.003zm-1.69.06l.927.192.577-.014.184-.238v-.001l.006-.007.006-.008.006-.011.002-.002c.801-1.239-3.945-6.353-12.264-13.607l-8.512-7.427-12.25-9.55-13.944-9.887v.002l-.021-.016.002.001.003.002-.021-.015-.006-.008-13.946-9.887-13.068-8.399-9.829-5.575-9.619-5.459-6.398-2.788-.887 1.185-.003.005-.004.006-.004.007-.002.001v.002a.002.002 0 0 1-.002.002c-.812 1.232 3.934 6.348 12.257 13.607l8.512 7.427 12.249 9.548 13.945 9.89.001.001.048.034-.059-.043.038.025.001.002 20.082 14.238 18.252 11.156 9.39 4.079 1.806.784 1.469.519 1.076.227zM86.201 95.816c.001.002.001.003 0 0zm-.003-.002c-.005-.002-.001 0 .002.002m-.002-.002l-.03-.021-13.964-9.902-12.271-9.566-8.533-7.444-8.682-7.575-4.819-5.504 1.117-1.622c-.002.002-.002.002 0-.001l.011-.016.012-.018.026-.026c1.252-1.499 8.009 1.229 17.941 6.866l9.848 5.588 13.088 8.416 13.967 9.902.001-.002.04.027-.038-.024.015.011.022.015.007.006 13.967 9.903 12.273 9.569 8.534 7.445 8.683 7.574 4.819 5.505-1.112 1.622c.001 0 .002.001 0 .003M39.015 54.179s0-.001 0 0c0-.001 0-.001 0 0zm.667.472v.002m.002-.003l-.002.001m54.242 30.251l.004.003-.004-.003zm-.465.673l-.011-.008.011.008.006.005-.006-.005zm.007.005l.004.003-.004-.003zm.004.003c.001.001 0 .001 0 0 .001.001.003.004 0 0z"/><path fill="#A498A4" d="M125.636 141.845l-.002.001h-.001c-.547.37-1.395.188-2.502-.499-.988-.609-2.234-1.637-3.701-3.026-7.462-7.079-20.838-23.857-34.864-44.155-.014-.021.043.067-.021-.027h.001c-9.735-14.09-17.992-27.276-23.459-37.189-5.574-10.105-8.22-16.934-6.601-18.062l.007-.004.002-.002.002-.001.001.001c1.632-1.104 7.08 3.78 14.555 12.561 7.335 8.615 16.753 21.003 26.494 35.095l.018.024.002-.001.004.007v.004a579.956 579.956 0 0 1 5.689 8.379 559.079 559.079 0 0 1 5.268 8.045c8.633 13.442 15.117 24.908 17.998 31.751l.007.011c.226.534.425 1.031.599 1.487.18.471.334.913.471 1.324.738 2.275.787 3.758.043 4.271l-.01.005zm-.456-.681l.002-.002v.001c.398-.286.254-1.45-.361-3.344-.131-.4-.282-.831-.455-1.288-.18-.471-.374-.959-.585-1.46l-.007-.011c-2.86-6.798-9.322-18.217-17.936-31.625a538.38 538.38 0 0 0-5.258-8.033 613.93 613.93 0 0 0-5.682-8.367v.001l-.006-.007v-.003L94.875 87C85.162 72.946 75.76 60.582 68.428 51.972c-7.186-8.438-12.251-13.251-13.473-12.413l-.001.001v.001l-.001.001-.001.001c-1.206.858 1.505 7.295 6.854 16.991 5.46 9.898 13.704 23.064 23.42 37.125l.007.009.011.02.005.007.004.007c13.991 20.243 27.317 36.965 34.741 44.008 1.43 1.355 2.632 2.348 3.566 2.927.812.504 1.364.688 1.615.516l.005-.009zM85.247 93.712l.004.007m-.009-.014l.005.007M54.95 39.562"/><radialGradient id="b" cx="-640.274" cy="866.76" r="72.782" gradientTransform="translate(613.877 -620.332) scale(.8197)" gradientUnits="userSpaceOnUse"><stop offset="0" stop-color="#fff"/><stop offset=".12" stop-color="#fff"/><stop offset=".29" stop-color="#89c651"/><stop offset=".42" stop-color="#2d6b3b"/><stop offset=".599" stop-color="#1b3a25"/><stop offset="1" stop-color="#253426"/></radialGradient><path fill="url(#b)" d="M85.65 43.986c3.989-5.259 8.678-10.248 13.534-12.314 7.812-3.325 15.188.58 15.902 9.044.372 4.389-1.122 9.219-3.523 12.275-3.521 4.479-9.994 7.867-13.588 10.844-2.675 2.212-2.871 3.18-3.312 6.432-.324 2.386-.436 4.842-.354 7.389l-5.69 4.008c-.084-3.865.021-7.731.313-11.382.176-2.206.474-4.104.919-5.491.792-2.474 2.229-3.854 5.523-6.221 3.334-2.396 7.831-5.156 10.576-7.709 2.463-2.29 4.781-5.57 5.322-9.012.395-2.501-.256-4.861-1.737-6.36-1.31-1.321-3.267-1.972-5.728-1.457-1.631.342-3.258 1.134-4.576 2.216-3.154 2.589-6.006 6.981-9 12.228-1.528-1.391-3.055-3.101-4.581-4.49zM82.694 93.98l1.484 1.924-6.495 3.304c1.982 2.195 3.432 4.848 5.053 7.43-1.791.648-2.992 1.173-4.784 1.82-.467-2.668-1.424-5.024-3.372-7.672l-11.388 5.792c1.815 5.482 3.243 11.632-4.278 14.055-6.161 1.983-11.287-.259-15.31-4.091l-7.5 3.815-1.484-1.924 7.265-3.695c-3.014-3.46-5.284-7.62-6.801-11.701 1.686-.118 3.536-.225 5.221-.346.533 3.326 1.308 6.931 4.125 10.578l.098.125 12.424-6.319c-1.784-5.138-3.077-10.565 3.979-12.839 4.257-1.371 10.542-.786 15.031 3.169l6.732-3.425zm-24.937 15.363l-11.516 5.858c3.026 2.667 7.019 3.848 10.318 2.786 3.583-1.154 2.612-4.635 1.198-8.644zm4.663-5.049l10.494-5.338c-2.45-2.056-6.401-3.353-9.954-2.209-2.603.84-1.778 3.872-.54 7.547zm29.074-6.706l1.809-1.62 3.768 6.239c2.046-2.135 4.587-3.773 7.045-5.579.773 1.74 1.386 2.9 2.16 4.64-2.627.66-4.907 1.784-7.406 3.918l6.604 10.938c5.336-2.208 11.365-4.075 14.326 3.25 2.426 6.001.562 11.274-2.971 15.565l4.348 7.203-1.811 1.619-4.213-6.979c-3.231 3.257-7.219 5.82-11.178 7.631-.24-1.673-.48-3.51-.723-5.184 3.279-.771 6.816-1.806 10.252-4.881l.115-.104-7.202-11.935c-4.993 2.15-10.315 3.834-13.093-3.039-1.676-4.146-1.549-10.457 2.072-15.221l-3.902-6.461zm17.127 23.759l6.676 11.062c2.441-3.212 3.33-7.279 2.031-10.492-1.41-3.491-4.812-2.271-8.707-.57zm-5.375-4.286l-6.084-10.078c-1.871 2.594-2.878 6.629-1.479 10.088 1.024 2.533 3.987 1.491 7.563-.01zm-7.795-31.249l-1.453-1.945 6.546-3.202c-1.946-2.226-3.354-4.9-4.937-7.509 1.801-.618 3.011-1.124 4.812-1.743.427 2.675 1.347 5.047 3.251 7.724l11.479-5.613c-1.729-5.51-3.061-11.682 4.498-13.985 6.191-1.888 11.281.435 15.244 4.33l7.559-3.695 1.453 1.944-7.32 3.581c2.959 3.508 5.164 7.703 6.617 11.808-1.688.092-3.539.17-5.229.262-.479-3.334-1.197-6.948-3.957-10.641-.031-.042-.062-.084-.097-.126l-12.521 6.123c1.701 5.164 2.91 10.613-4.183 12.775-4.276 1.304-10.553.619-14.979-3.405l-6.783 3.317zm25.176-14.968l11.605-5.676c-2.983-2.715-6.959-3.958-10.273-2.948-3.6 1.097-2.684 4.595-1.332 8.624zm-4.742 4.976l-10.576 5.172c2.418 2.094 6.35 3.452 9.918 2.363 2.615-.797 1.837-3.84.658-7.535zm-29.388 7.22l-1.827 1.602-3.703-6.276c-2.066 2.115-4.623 3.728-7.101 5.507-.756-1.746-1.355-2.913-2.112-4.661 2.633-.632 4.925-1.734 7.445-3.843l-6.491-11.004C67.35 66.518 61.3 68.326 58.414 60.97c-2.364-6.023-.446-11.28 3.128-15.535l-4.274-7.246 1.826-1.602 4.141 7.02c3.266-3.224 7.276-5.749 11.255-7.517.224 1.675.446 3.514.669 5.188-3.286.74-6.833 1.734-10.3 4.774l-.117.105 7.082 12.006c5.016-2.101 10.354-3.731 13.062 3.17 1.634 4.164 1.442 10.474-2.226 15.199l3.837 6.508zM69.61 59.111l-6.564-11.129c-2.474 3.187-3.404 7.245-2.137 10.472 1.374 3.504 4.79 2.318 8.701.657zm5.33 4.338l5.982 10.141c1.898-2.573 2.945-6.598 1.583-10.07-1-2.548-3.973-1.536-7.565-.071zm60.173 24.064c5.208 4.059 10.135 8.812 12.14 13.69 3.226 7.854-.778 15.18-9.249 15.784-4.395.315-9.201-1.239-12.229-3.684-4.436-3.575-7.738-10.094-10.668-13.729-2.181-2.699-3.145-2.908-6.39-3.396-2.382-.354-4.837-.495-7.384-.444l-3.936-5.743c3.865-.033 7.729.12 11.377.459 2.203.206 4.099.526 5.479.989 2.463.823 3.824 2.277 6.149 5.604 2.354 3.365 5.054 7.896 7.57 10.675 2.26 2.492 5.51 4.856 8.94 5.441 2.496.425 4.865-.194 6.382-1.657 1.338-1.291 2.016-3.239 1.532-5.708-.321-1.633-1.093-3.271-2.156-4.604-2.547-3.188-6.901-6.096-12.11-9.155 1.417-1.512 3.145-3.014 4.553-4.522zm-43.404 48.995c-4.044 5.219-8.783 10.158-13.659 12.176-7.845 3.246-15.182-.735-15.81-9.207-.327-4.393 1.217-9.205 3.65-12.236 3.565-4.443 10.073-7.767 13.7-10.704 2.694-2.188 2.901-3.15 3.377-6.396.349-2.383.485-4.838.428-7.385 1.912-1.315 3.821-2.634 5.733-3.95a113.82 113.82 0 0 1-.429 11.379c-.2 2.203-.517 4.101-.976 5.481-.817 2.467-2.269 3.829-5.586 6.164-3.358 2.362-7.882 5.075-10.654 7.6-2.486 2.268-4.841 5.521-5.417 8.957-.419 2.495.208 4.863 1.674 6.377 1.295 1.335 3.244 2.007 5.712 1.518 1.633-.325 3.267-1.102 4.598-2.169 3.181-2.557 6.077-6.92 9.125-12.135 1.513 1.4 3.021 3.126 4.534 4.53zM43.812 93.699c-5.382-3.823-10.514-8.354-12.731-13.145-3.568-7.704.106-15.198 8.542-16.177 4.375-.51 9.249.833 12.38 3.139 4.587 3.379 8.176 9.743 11.263 13.245 2.295 2.603 3.268 2.769 6.532 3.109 2.394.249 4.853.283 7.396.121l4.185 5.562c-3.862.204-7.729.221-11.386.043-2.211-.106-4.118-.346-5.518-.747-2.498-.715-3.921-2.108-6.391-5.325-2.5-3.258-5.397-7.667-8.035-10.33-2.366-2.393-5.718-4.609-9.174-5.043-2.512-.313-4.851.41-6.302 1.938-1.28 1.349-1.869 3.324-1.277 5.771.392 1.619 1.235 3.219 2.357 4.504 2.687 3.072 7.166 5.785 12.503 8.613-1.342 1.575-3.004 3.153-4.344 4.722z"/><path fill="#306F37" d="M111.213 53.42c-.691.824-1.48 1.61-2.327 2.363a39.542 39.542 0 0 0-5.608-2.731c.984-.738 1.897-1.473 2.672-2.189l.137-.129a42.679 42.679 0 0 1 5.126 2.686zm-20.225-6.261c-.252.432-.504.871-.758 1.315a41.92 41.92 0 0 1-1.422-1.368h.049c.714 0 1.425.018 2.131.053zm28.176 12.535a43.845 43.845 0 0 1 2.434 2.647c-1.31.504-1.926 1.376-2.104 2.502a40.639 40.639 0 0 0-3.31-3.558c.761-.625 1.742-1.164 2.98-1.591zm6.664 8.606c.404.688.793 1.382 1.158 2.091l-2.896 1.417a39.31 39.31 0 0 0-1.166-2.087l2.904-1.421zm5.911 22.538a45.43 45.43 0 0 1-.076 1.848 67.48 67.48 0 0 0-1.097-.649c.373-.402.768-.802 1.173-1.199zm-3.807 16.828a42.848 42.848 0 0 1-2.767 5.122 23.63 23.63 0 0 1-2.313-2.388 39.664 39.664 0 0 0 2.805-5.608c.763 1.06 1.527 2.043 2.275 2.874zm-8.057 11.909a42.332 42.332 0 0 1-2.514 2.426 1.515 1.515 0 0 0-.033-.086c-.52-1.287-1.312-1.935-2.299-2.151a40.556 40.556 0 0 0 3.197-3.146c.586.723 1.113 1.632 1.568 2.758.03.065.056.132.081.199zm-8.251 6.746c-.673.424-1.356.829-2.054 1.216l-1.668-2.762a41.42 41.42 0 0 0 2.057-1.215l1.665 2.761zm-23.507 6.563c-.486-.008-.97-.021-1.452-.045.169-.286.339-.574.509-.866.315.293.628.597.943.911zm-16.468-3.607a42.631 42.631 0 0 1-5.182-2.722 24.348 24.348 0 0 1 2.4-2.317 39.81 39.81 0 0 0 5.682 2.752c-1.065.77-2.058 1.535-2.9 2.287zm-12.757-8.637a43.314 43.314 0 0 1-2.461-2.61c.043-.016.086-.026.128-.04 1.297-.417 1.998-1.143 2.296-2.083a40.193 40.193 0 0 0 3.12 3.221c-.797.593-1.804 1.104-3.061 1.508-.007-.001-.015.002-.022.004zm-6.721-8.454a43.278 43.278 0 0 1-1.182-2.078l2.874-1.461c.377.703.774 1.396 1.191 2.071l-2.883 1.468zm-6.185-20.849a42.426 42.426 0 0 1 .032-3.511c.695.384 1.408.769 2.137 1.154-.67.785-1.419 1.572-2.169 2.357zm3.61-18.583a42.88 42.88 0 0 1 2.646-5.056 22.008 22.008 0 0 1 2.44 2.202 39.52 39.52 0 0 0-2.696 5.481 30.932 30.932 0 0 0-1.938-2.184 18.999 18.999 0 0 0-.452-.443zm8.519-12.614a43.757 43.757 0 0 1 2.547-2.419c.07.248.152.494.246.733.386.981.932 1.595 1.604 1.933a40.055 40.055 0 0 0-2.912 2.872 11.497 11.497 0 0 1-1.186-2.289 16.655 16.655 0 0 1-.299-.83zm8.205-6.607c.675-.42 1.361-.822 2.061-1.204l1.639 2.777c-.7.381-1.387.783-2.062 1.203l-1.638-2.776z"/></svg>
